<svg xmlns="http://www.w3.org/2000/svg" viewBox="0 0 64 64" width="64" height="64" role="img" aria-label="Learn Dart with Tests">
  <title>Learn Dart with Tests</title>
  <!-- Hex measured off a canvas, never converted: #05281d is oklch(25% 0.045 168)
       and #ecf4ee is oklch(96% 0.012 155). Both are theme-stable, so this file
       is the whole favicon — there is no dark variant to keep in step.
       This is the small cut of the mark: browsers render icon.svg at 16 and 32,
       where the nose and mouth silt up and the eyes need to be cut wider. -->
  <rect width="64" height="64" rx="14.8" fill="#05281d"/>
  <g transform="translate(6.4 10.6) scale(0.8)" fill="#ecf4ee">
    <path d="M5.6 44 C5.6 40.2 8.6 37.4 12.2 37.4 C15.8 37.4 18.8 40.2 18.8 44 Z M45.2 44 C45.2 40.2 48.2 37.4 51.8 37.4 C55.4 37.4 58.4 40.2 58.4 44 Z"/>
    <path fill-rule="evenodd" d="M13.6 44 C13.6 36 14 28.4 15.2 22 L17 9.6 L27.2 18.6 C30.4 17.8 33.6 17.8 36.8 18.6 L47 9.6 L48.8 22 C50 28.4 50.4 36 50.4 44 Z M18.8 32 C21.2 25.6 26.8 25.6 29.2 32 C26.6 29 21.4 29 18.8 32 Z M34.8 32 C37.2 25.6 42.8 25.6 45.2 32 C42.6 29 37.4 29 34.8 32 Z"/>
  </g>
</svg>
